<svg width="25" height="24" viewBox="0 0 25 24" fill="none" xmlns="http://www.w3.org/2000/svg">
<g clip-path="url(#clip0_4_396)">
<path d="M12.5 11C13.2911 11 14.0645 10.7654 14.7223 10.3259C15.3801 9.88635 15.8928 9.26164 16.1955 8.53074C16.4983 7.79983 16.5775 6.99556 16.4231 6.21964C16.2688 5.44372 15.8878 4.73098 15.3284 4.17157C14.769 3.61216 14.0563 3.2312 13.2804 3.07686C12.5044 2.92252 11.7002 3.00173 10.9693 3.30448C10.2384 3.60723 9.61365 4.11992 9.17412 4.77772C8.7346 5.43552 8.5 6.20888 8.5 7C8.5 8.06087 8.92143 9.07828 9.67157 9.82843C10.4217 10.5786 11.4391 11 12.5 11ZM12.5 5C12.8956 5 13.2822 5.1173 13.6111 5.33706C13.94 5.55683 14.1964 5.86918 14.3478 6.23463C14.4991 6.60009 14.5387 7.00222 14.4616 7.39018C14.3844 7.77814 14.1939 8.13451 13.9142 8.41422C13.6345 8.69392 13.2781 8.8844 12.8902 8.96157C12.5022 9.03874 12.1001 8.99914 11.7346 8.84776C11.3692 8.69639 11.0568 8.44004 10.8371 8.11114C10.6173 7.78224 10.5 7.39556 10.5 7C10.5 6.46957 10.7107 5.96086 11.0858 5.58579C11.4609 5.21072 11.9696 5 12.5 5Z" fill="white"/>
<path d="M12.5 13C10.6435 13 8.86301 13.7375 7.55025 15.0503C6.2375 16.363 5.5 18.1435 5.5 20C5.5 20.2652 5.60536 20.5196 5.79289 20.7071C5.98043 20.8946 6.23478 21 6.5 21C6.76522 21 7.01957 20.8946 7.20711 20.7071C7.39464 20.5196 7.5 20.2652 7.5 20C7.5 18.6739 8.02678 17.4021 8.96447 16.4645C9.90215 15.5268 11.1739 15 12.5 15C13.8261 15 15.0979 15.5268 16.0355 16.4645C16.9732 17.4021 17.5 18.6739 17.5 20C17.5 20.2652 17.6054 20.5196 17.7929 20.7071C17.9804 20.8946 18.2348 21 18.5 21C18.7652 21 19.0196 20.8946 19.2071 20.7071C19.3946 20.5196 19.5 20.2652 19.5 20C19.5 18.1435 18.7625 16.363 17.4497 15.0503C16.137 13.7375 14.3565 13 12.5 13Z" fill="white"/>
</g>
<defs>
<clipPath id="clip0_4_396">
<rect width="24" height="24" fill="white" transform="translate(0.5)"/>
</clipPath>
</defs>
</svg>
