<svg width="70" height="70" viewBox="0 0 70 70" fill="none" xmlns="http://www.w3.org/2000/svg">
<path d="M8.75 23.3333H29.1667C33.9993 23.3333 37.9167 19.4158 37.9167 14.5833C37.9167 9.75086 33.9993 5.83334 29.1667 5.83334C24.3342 5.83334 20.4167 9.75086 20.4167 14.5833" stroke="white" stroke-opacity="0.1" stroke-width="2" stroke-linecap="round" stroke-linejoin="round"/>
<path d="M11.6667 46.6667H43.75C48.5826 46.6667 52.5 50.584 52.5 55.4167C52.5 60.2493 48.5826 64.1667 43.75 64.1667C38.9174 64.1667 35 60.2493 35 55.4167" stroke="white" stroke-opacity="0.1" stroke-width="2" stroke-linecap="round" stroke-linejoin="round"/>
<path d="M5.83331 35H55.4166C60.2493 35 64.1666 31.0826 64.1666 26.25C64.1666 21.4175 60.2493 17.5 55.4166 17.5C50.584 17.5 46.6666 21.4175 46.6666 26.25" stroke="white" stroke-opacity="0.1" stroke-width="2" stroke-linecap="round" stroke-linejoin="round"/>
</svg>
