<svg width="25" height="25" viewBox="0 0 25 25" fill="none" xmlns="http://www.w3.org/2000/svg">
<g clip-path="url(#clip0_51_27)">
<path d="M19.9765 7.552H16.9765V6.052C16.9765 5.38896 16.7131 4.75308 16.2443 4.28423C15.7754 3.81539 15.1396 3.552 14.4765 3.552H11.4765C10.8135 3.552 10.1776 3.81539 9.70875 4.28423C9.23991 4.75308 8.97652 5.38896 8.97652 6.052V7.552H5.97652C5.18087 7.552 4.41781 7.86807 3.8552 8.43068C3.29259 8.99329 2.97652 9.75635 2.97652 10.552V18.552C2.97652 19.3477 3.29259 20.1107 3.8552 20.6733C4.41781 21.2359 5.18087 21.552 5.97652 21.552H19.9765C20.7722 21.552 21.5352 21.2359 22.0978 20.6733C22.6604 20.1107 22.9765 19.3477 22.9765 18.552V10.552C22.9765 9.75635 22.6604 8.99329 22.0978 8.43068C21.5352 7.86807 20.7722 7.552 19.9765 7.552ZM10.9765 6.052C10.9765 5.91939 11.0292 5.79222 11.123 5.69845C11.2167 5.60468 11.3439 5.552 11.4765 5.552H14.4765C14.6091 5.552 14.7363 5.60468 14.8301 5.69845C14.9238 5.79222 14.9765 5.91939 14.9765 6.052V7.552H10.9765V6.052ZM20.9765 18.552C20.9765 18.8172 20.8712 19.0716 20.6836 19.2591C20.4961 19.4466 20.2417 19.552 19.9765 19.552H5.97652C5.7113 19.552 5.45695 19.4466 5.26941 19.2591C5.08187 19.0716 4.97652 18.8172 4.97652 18.552V10.552C4.97652 10.2868 5.08187 10.0324 5.26941 9.84489C5.45695 9.65736 5.7113 9.552 5.97652 9.552H19.9765C20.2417 9.552 20.4961 9.65736 20.6836 9.84489C20.8712 10.0324 20.9765 10.2868 20.9765 10.552V18.552Z" fill="#262626"/>
<path d="M12.9765 11.052C12.2843 11.052 11.6076 11.2573 11.032 11.6419C10.4565 12.0264 10.0078 12.5731 9.74294 13.2126C9.47803 13.8522 9.40872 14.5559 9.54377 15.2348C9.67882 15.9138 10.0122 16.5374 10.5016 17.0269C10.9911 17.5164 11.6148 17.8497 12.2937 17.9848C12.9726 18.1198 13.6764 18.0505 14.3159 17.7856C14.9555 17.5207 15.5021 17.0721 15.8867 16.4965C16.2712 15.9209 16.4765 15.2442 16.4765 14.552C16.4765 13.6237 16.1078 12.7335 15.4514 12.0771C14.795 11.4208 13.9048 11.052 12.9765 11.052V11.052ZM12.9765 16.052C12.6798 16.052 12.3898 15.964 12.1432 15.7992C11.8965 15.6344 11.7042 15.4001 11.5907 15.126C11.4772 14.8519 11.4475 14.5503 11.5053 14.2594C11.5632 13.9684 11.7061 13.7011 11.9159 13.4913C12.1256 13.2816 12.3929 13.1387 12.6839 13.0808C12.9749 13.0229 13.2765 13.0527 13.5505 13.1662C13.8246 13.2797 14.0589 13.472 14.2237 13.7186C14.3885 13.9653 14.4765 14.2553 14.4765 14.552C14.4765 14.9498 14.3185 15.3314 14.0372 15.6127C13.7559 15.894 13.3743 16.052 12.9765 16.052V16.052Z" fill="#262626"/>
</g>
<defs>
<clipPath id="clip0_51_27">
<rect width="24" height="24" fill="white" transform="translate(0.976517 0.552002)"/>
</clipPath>
</defs>
</svg>
