<svg width="24" height="24" viewBox="0 0 24 24" fill="none" xmlns="http://www.w3.org/2000/svg">
<path d="M15.7549 20.9998C15.5125 20.9989 15.2728 20.949 15.0502 20.8531C14.8276 20.7573 14.6266 20.6174 14.4594 20.442L7.51433 13.245C7.18466 12.9087 7 12.4565 7 11.9856C7 11.5146 7.18466 11.0624 7.51433 10.7261L14.7113 3.52914C14.8791 3.36138 15.0782 3.22831 15.2974 3.13752C15.5166 3.04673 15.7515 3 15.9888 3C16.226 3 16.4609 3.04673 16.6801 3.13752C16.8993 3.22831 17.0985 3.36138 17.2662 3.52914C17.434 3.6969 17.567 3.89606 17.6578 4.11525C17.7486 4.33443 17.7954 4.56936 17.7954 4.8066C17.7954 5.04385 17.7486 5.27877 17.6578 5.49796C17.567 5.71715 17.434 5.91631 17.2662 6.08407L11.3287 12.0036L17.0503 17.9411C17.3854 18.2782 17.5735 18.7342 17.5735 19.2095C17.5735 19.6849 17.3854 20.1409 17.0503 20.478C16.8801 20.6469 16.6777 20.7801 16.4553 20.8697C16.2328 20.9593 15.9947 21.0035 15.7549 20.9998Z" fill="black"/>
</svg>
