<svg width="25" height="25" viewBox="0 0 25 25" fill="none" xmlns="http://www.w3.org/2000/svg">
<g clip-path="url(#clip0_51_48)">
<path d="M13.3216 11.9015C13.1347 11.7182 12.8834 11.6156 12.6216 11.6156C12.3599 11.6156 12.1086 11.7182 11.9216 11.9015L8.92165 14.8015C8.81554 14.889 8.72864 14.9975 8.66638 15.1202C8.60412 15.2429 8.56784 15.3771 8.55981 15.5144C8.55178 15.6518 8.57218 15.7893 8.61972 15.9184C8.66726 16.0475 8.74093 16.1654 8.83612 16.2647C8.9313 16.364 9.04596 16.4426 9.17291 16.4956C9.29987 16.5486 9.43639 16.5748 9.57395 16.5726C9.7115 16.5705 9.84712 16.5399 9.97234 16.4829C10.0975 16.426 10.2097 16.3437 10.3016 16.2415L11.6116 14.9715V20.6115C11.6116 20.8767 11.717 21.131 11.9045 21.3186C12.0921 21.5061 12.3464 21.6115 12.6116 21.6115C12.8769 21.6115 13.1312 21.5061 13.3188 21.3186C13.5063 21.131 13.6116 20.8767 13.6116 20.6115V15.0215L14.9016 16.3215C14.9946 16.4152 15.1052 16.4896 15.2271 16.5403C15.3489 16.5911 15.4796 16.6173 15.6116 16.6173C15.7437 16.6173 15.8744 16.5911 15.9962 16.5403C16.1181 16.4896 16.2287 16.4152 16.3216 16.3215C16.4154 16.2285 16.4898 16.1179 16.5405 15.996C16.5913 15.8742 16.6174 15.7435 16.6174 15.6115C16.6174 15.4794 16.5913 15.3487 16.5405 15.2269C16.4898 15.105 16.4154 14.9944 16.3216 14.9015L13.3216 11.9015Z" fill="#262626"/>
<path d="M18.2816 7.61143C17.8736 6.43248 17.1082 5.41005 16.092 4.68639C15.0757 3.96274 13.8592 3.57385 12.6116 3.57385C11.3641 3.57385 10.1476 3.96274 9.13132 4.68639C8.11508 5.41005 7.34969 6.43248 6.94165 7.61143C6.0432 7.73177 5.19437 8.09408 4.48595 8.65962C3.77753 9.22516 3.23619 9.97265 2.91982 10.8221C2.60345 11.6716 2.52396 12.5911 2.68986 13.4822C2.85576 14.3734 3.2608 15.2027 3.86165 15.8814C3.93423 16.0093 4.0341 16.1195 4.15416 16.2044C4.27421 16.2892 4.4115 16.3466 4.55624 16.3723C4.70098 16.398 4.84961 16.3915 4.99155 16.3533C5.13349 16.315 5.26525 16.2459 5.37745 16.1509C5.48965 16.0559 5.57952 15.9374 5.64067 15.8037C5.70181 15.67 5.73274 15.5245 5.73123 15.3775C5.72972 15.2305 5.69582 15.0856 5.63194 14.9532C5.56806 14.8208 5.47577 14.7041 5.36165 14.6114C4.97477 14.1789 4.72164 13.6434 4.63294 13.0699C4.54424 12.4964 4.62378 11.9095 4.86192 11.3803C5.10007 10.8511 5.48659 10.4023 5.97464 10.0884C6.4627 9.7744 7.03134 9.60873 7.61165 9.61143H7.71165C7.9456 9.61615 8.17379 9.53868 8.35651 9.3925C8.53923 9.24633 8.6649 9.04071 8.71165 8.81143C8.89526 7.9072 9.38583 7.09425 10.1002 6.51033C10.8147 5.92641 11.709 5.60742 12.6317 5.60742C13.5543 5.60742 14.4486 5.92641 15.1631 6.51033C15.8775 7.09425 16.368 7.9072 16.5516 8.81143C16.5984 9.04071 16.7241 9.24633 16.9068 9.3925C17.0895 9.53868 17.3177 9.61615 17.5517 9.61143H17.6116C18.192 9.60873 18.7606 9.7744 19.2487 10.0884C19.7367 10.4023 20.1232 10.8511 20.3614 11.3803C20.5995 11.9095 20.6791 12.4964 20.5904 13.0699C20.5017 13.6434 20.2485 14.1789 19.8616 14.6114C19.7736 14.7102 19.706 14.8255 19.6628 14.9506C19.6196 15.0757 19.6016 15.2081 19.61 15.3402C19.6184 15.4723 19.6529 15.6014 19.7115 15.7201C19.7702 15.8387 19.8518 15.9446 19.9516 16.0314C20.134 16.1922 20.3686 16.2811 20.6116 16.2814C20.7536 16.2813 20.894 16.2508 21.0233 16.1922C21.1526 16.1336 21.2679 16.0481 21.3616 15.9414C21.9792 15.2639 22.3985 14.4296 22.5739 13.5298C22.7492 12.63 22.6738 11.6992 22.3559 10.8394C22.038 9.97955 21.4898 9.22366 20.7712 8.65436C20.0527 8.08507 19.1914 7.72427 18.2816 7.61143V7.61143Z" fill="#262626"/>
</g>
<defs>
<clipPath id="clip0_51_48">
<rect width="24" height="24" fill="white" transform="translate(0.611649 0.61145)"/>
</clipPath>
</defs>
</svg>
