<svg width="109" height="70" viewBox="0 0 109 70" fill="none" xmlns="http://www.w3.org/2000/svg">
<path d="M56.0822 69.1064C55.7697 69.1369 55.4572 69.1686 54.9886 69.215C41.9876 70.1378 29.8335 65.2973 24.7537 57.0067L26.0697 55.9608C30.7842 63.7376 42.4322 68.2629 54.8085 67.4024C67.9658 66.4651 79.1068 59.4972 81.8541 50.6149L83.333 51.2014C80.6374 60.6267 69.3599 67.7903 56.0823 69.1064L56.0822 69.1064Z" fill="black"/>
<path d="M20.7453 68.0625C19.1116 68.0757 16.9825 67.7725 14.851 66.9874C8.78722 64.9485 2.04455 59.8672 0.356345 53.299C-1.49719 46.412 4.00119 39.1433 14.0315 26.0616C30.0432 4.74465 32.3428 6.16951 33.3295 6.805C34.8083 7.75692 34.0086 9.85008 32.081 14.0378C29.6754 19.6752 25.6637 29.1771 25.1106 41.5412C24.8365 48.1253 25.6944 53.2543 26.2147 56.9425C26.9072 61.7523 27.4235 64.9589 24.9848 66.7437C24.0104 67.554 22.5434 68.0478 20.7454 68.0624L20.7453 68.0625ZM32.5218 8.09561C32.5218 8.09561 29.9043 7.79507 15.3448 26.8533C4.9929 40.58 0.46751 46.8766 1.98761 52.8025C3.50751 58.8914 9.9206 63.492 15.4933 65.3747C19.2639 66.6285 22.3698 66.7649 24.157 65.4661C25.7828 64.3301 25.6001 61.9233 24.7449 57.1145C24.0591 53.267 23.364 48.137 23.6367 41.3926C24.1888 28.7078 28.3607 19.0432 30.7661 13.2455C31.5645 11.151 32.6898 8.73603 32.5217 8.09545L32.5218 8.09561Z" fill="black"/>
<path d="M93.9102 68.5404H93.2681C88.4529 68.0585 85.0823 59.392 77.5384 40.6119C76.4143 37.7231 75.612 35.6364 74.8097 32.7464C74.8097 32.5862 69.3523 12.0398 74.4893 9.79304C76.4156 8.99073 78.0203 11.0773 81.0706 14.7685C83.7993 18.2995 88.1326 23.5966 94.8742 29.3757C98.0848 32.1044 100.332 33.709 102.258 35.1548C105.307 37.4016 107.073 38.5256 108.197 41.5745C110.605 48.3162 107.234 56.8223 102.9 62.2811C100.01 66.454 96.799 68.5408 93.9103 68.5408L93.9102 68.5404ZM75.4517 11.4002C73.205 12.2026 73.8471 22.4751 76.5758 32.4271C77.3781 35.1558 78.0202 37.2423 79.1442 40.131C85.8859 57.1449 89.5768 66.6153 93.5897 66.937C95.998 67.0972 99.0472 65.1708 101.936 61.6398C105.788 56.6643 109.159 48.4785 106.911 42.3791C105.949 39.8107 104.665 38.8481 101.614 36.7617C99.6879 35.4775 97.281 33.7126 94.0703 30.9826C87.1687 25.0435 82.8341 19.7464 80.1054 16.0551C77.8587 13.4867 76.2542 11.4002 75.4519 11.4002H75.4517Z" fill="black"/>
<path d="M78.0212 39.4873C77.0587 37.079 76.4166 35.1541 75.7745 32.7456C73.6879 25.2017 71.7615 12.2007 74.9721 10.7562C76.4166 10.1141 78.0212 12.2006 80.9112 15.893C75.2938 6.26267 64.3792 -0.158359 52.0188 0.00297184C40.462 0.16317 30.51 5.94204 24.8925 14.6102C28.5838 10.4373 32.1158 6.90629 33.4004 7.70854C35.6471 9.15295 25.6965 21.5121 24.7326 41.7371C24.5724 43.8236 24.5724 45.75 24.7326 47.5162C24.7326 47.6764 24.8928 47.6764 24.8928 47.8366C26.177 42.5394 31.9547 38.0459 39.9806 35.6378C39.0181 34.0332 38.3759 31.9465 38.3759 29.6987C38.3759 24.4016 41.5865 20.0684 45.5992 20.0684C49.6119 20.0684 52.8225 24.4016 52.8225 29.6987C52.8225 31.1432 52.6623 32.4274 52.1804 33.5514H54.1067C53.7863 32.4273 53.4646 30.9829 53.4646 29.6987C53.4646 24.4016 56.6752 20.0684 60.6879 20.0684C64.7008 20.0684 67.9112 24.4016 67.9112 29.6987C67.9112 31.6251 67.4292 33.39 66.7871 34.9959C71.119 35.7956 74.9706 37.4002 78.021 39.4881L78.0212 39.4873Z" fill="black"/>
<path d="M55.5466 49.1196C54.4226 48.9594 51.2134 48.1571 49.4472 45.267C48.6449 43.9828 48.163 42.6986 48.163 41.0941V40.2918L61.9666 40.1316V40.9339C61.9666 42.0579 61.8064 43.6626 60.8425 45.2671C59.3981 47.8356 56.8296 48.7981 55.8671 49.1197L55.5466 49.1196ZM49.7675 41.8963C49.9277 42.6987 50.2494 43.501 50.73 44.4648C52.1744 46.7115 54.5826 47.3536 55.3849 47.5138C56.3473 47.1935 58.1135 46.3898 59.2375 44.4648C59.8796 43.5023 60.0398 42.5385 60.2 41.7361L49.7675 41.8963Z" fill="black"/>
<path d="M47.0396 26.9673C45.2734 26.9673 43.829 28.7334 43.829 30.9802C43.829 33.0667 45.1132 34.6715 46.5576 34.9932C45.9155 34.5112 45.5951 33.5487 45.5951 32.4247C45.5951 30.8201 46.3975 29.5359 47.1998 29.5359C48.1623 29.5359 48.8044 30.8201 48.8044 32.4247C48.8044 33.3872 48.484 34.351 48.1623 34.833C49.2863 34.1909 50.2488 32.7464 50.2488 31.1417C50.2501 28.7334 48.8057 26.9674 47.0396 26.9674V26.9673Z" fill="black"/>
<path d="M59.2377 26.9673C57.4715 26.9673 56.0271 28.7334 56.0271 30.9802C56.0271 32.9066 57.1511 34.5112 58.4354 34.8328C57.9534 34.3509 57.4729 33.3884 57.4729 32.2644C57.4729 30.6598 58.2752 29.3756 59.0775 29.3756C59.8798 29.3756 60.6821 30.6598 60.6821 32.2644C60.6821 33.3884 60.3617 34.3509 59.7196 34.8328C61.1641 34.3509 62.1279 32.9065 62.1279 30.9802C62.4483 28.7335 61.0039 26.9673 59.2377 26.9673H59.2377Z" fill="black"/>
<path d="M54.1028 62.2804H52.4982C52.4982 61.96 52.6584 54.0946 58.9178 50.4019C64.5353 47.0312 72.2408 48.7973 76.734 54.4148L75.4498 55.3773C71.4369 50.4019 64.5352 48.796 59.5597 51.6861C54.264 54.8966 54.1023 62.12 54.1023 62.2803L54.1028 62.2804Z" fill="black"/>
<path d="M39.0137 46.7099C37.5692 46.7099 36.4452 45.7474 35.9646 44.7835C35.0021 42.8572 36.1248 40.2886 38.5331 38.3638L39.015 38.0435L39.4969 38.5254C41.9052 40.6119 42.8677 43.5009 41.7436 45.1067C41.4219 45.9077 40.2979 46.71 39.0137 46.71V46.7099ZM39.0137 40.2902C37.409 41.7346 36.9271 43.3392 37.409 44.1428C37.5692 44.6247 38.2113 45.1053 39.0137 45.1053C39.6558 45.1053 40.1377 44.6234 40.4581 44.303C40.94 43.4993 40.6196 41.8947 39.0137 40.2901V40.2902Z" fill="black"/>
</svg>
