<svg width="88" height="87" viewBox="0 0 88 87" fill="none" xmlns="http://www.w3.org/2000/svg">
<circle cx="44" cy="43.5" r="43" fill="#D9D9D9" stroke="#262626" stroke-dasharray="2 2"/>
<path d="M51.5541 51.3076C48.7354 51.1314 48.7353 38.8154 48.6152 38.7033C47.5262 37.6703 48.0707 49.1695 48.5992 50.2346C49.1518 51.3316 49.9365 53.1734 51.9785 53.1174C54.0205 53.0613 61.5879 45.4299 61.5879 45.4299L63.0293 46.8713L54.3809 57.9221C54.3809 57.9221 55.1016 54.2545 54.3809 55.5197C53.6602 56.785 46.2129 60.3244 46.2129 60.3244C46.2129 60.3244 47.2299 59.4756 47.1738 55.0393C47.1098 50.6029 45.252 49.1455 44.291 48.3127C43.3301 47.4799 40.8637 46.9273 39.9668 46.8713C39.0619 46.8152 35.3383 47.4639 34.2012 47.3518C33.0561 47.2397 30.8379 46.6871 29.877 45.9104C28.916 45.1336 26.0893 42.9635 26.0332 40.6252C26.0172 40.0887 29.3084 38.9035 29.877 38.7033C30.4215 38.5111 34.2012 35.3961 35.1621 34.3791C36.123 33.3621 36.8117 32.1209 38.4053 29.8707C39.8467 27.8287 44.7074 26.6275 46.7494 26.6836C49.5121 26.7637 54.0926 29.102 56.3027 30.7115C61.8281 34.7314 61.708 39.0557 61.708 39.0557C62.8451 42.8434 53.484 51.4357 51.5541 51.3076Z" fill="#262626" fill-opacity="0.6"/>
<path d="M39.4062 34.9316C38.7016 34.9316 38.125 34.3551 38.125 33.6504C38.125 32.9457 38.7016 32.3691 39.4062 32.3691C40.1109 32.3691 40.6875 32.9457 40.6875 33.6504C40.6875 34.3551 40.1109 34.9316 39.4062 34.9316Z" fill="white"/>
</svg>
