<svg width="28" height="27" viewBox="0 0 28 27" fill="none" xmlns="http://www.w3.org/2000/svg">
<circle cx="13.5312" cy="13.5" r="13.5" fill="#23B244"/>
<g clip-path="url(#clip0_12_672)">
<path d="M21.1812 8.34L18.4412 5.6C18.0836 5.2641 17.615 5.07136 17.1246 5.05845C16.6341 5.04555 16.156 5.21337 15.7812 5.53L6.78124 14.53C6.45801 14.856 6.25675 15.2832 6.21124 15.74L5.78124 19.91C5.76777 20.0565 5.78678 20.2041 5.8369 20.3424C5.88703 20.4807 5.96704 20.6062 6.07124 20.71C6.16468 20.8027 6.2755 20.876 6.39734 20.9258C6.51917 20.9755 6.64963 21.0008 6.78124 21H6.87124L11.0412 20.62C11.498 20.5745 11.9253 20.3732 12.2512 20.05L21.2512 11.05C21.6006 10.681 21.7893 10.1885 21.7762 9.68054C21.7631 9.17257 21.5491 8.69051 21.1812 8.34ZM17.7812 11.68L15.1012 9L17.0512 7L19.7812 9.73L17.7812 11.68Z" fill="white"/>
</g>
<defs>
<clipPath id="clip0_12_672">
<rect x="1.78125" y="1" width="24" height="24" rx="12" fill="white"/>
</clipPath>
</defs>
</svg>
