<svg width="70" height="65" viewBox="0 0 70 65" fill="none" xmlns="http://www.w3.org/2000/svg">
<path d="M45.0309 38.8234C44.5051 38.8234 44.0233 38.5269 43.787 38.0543L40.8315 32.1455H28.393C27.8672 32.1455 27.3854 31.849 27.1492 31.3765L25.0529 27.1863L19.6189 38.0543C19.3827 38.5245 18.9032 38.8234 18.3751 38.8234C17.847 38.8234 17.3675 38.5269 17.1312 38.0543L14.1757 32.1455H4.12994C3.36325 32.1455 2.74017 31.5224 2.74017 30.7557C2.74017 29.989 3.36325 29.366 4.12994 29.366H15.0373C15.5631 29.366 16.0449 29.6624 16.2812 30.135L18.3774 34.3274L23.8091 23.4594C24.0454 22.9892 24.5248 22.6904 25.0529 22.6904C25.5811 22.6904 26.0605 22.9869 26.2968 23.4594L29.2524 29.366H41.6908C42.2166 29.366 42.6984 29.6624 42.9347 30.135L45.0309 34.3274L50.4626 23.4594C50.6988 22.9892 51.1783 22.6904 51.7064 22.6904C52.2345 22.6904 52.714 22.9869 52.9503 23.4594L55.9058 29.366H65.8821C66.6488 29.366 67.2718 29.989 67.2718 30.7557C67.2718 31.5224 66.6488 32.1455 65.8821 32.1455H55.0465C54.5207 32.1455 54.0389 31.849 53.8027 31.3765L51.7064 27.1863L46.2747 38.0543C46.0385 38.5245 45.5567 38.8234 45.0309 38.8234Z" fill="white" fill-opacity="0.1"/>
<path d="M64.2862 5.55225C61.3746 2.73796 58.3588 1.58909 57.8932 1.42232C53.3139 -0.516415 48.4938 -0.472406 43.9469 1.54971C40.4447 3.10857 37.3316 5.78156 35.0037 9.1865C32.6759 5.78156 29.5651 3.10857 26.0605 1.54971C21.516 -0.472406 16.6935 -0.516415 12.1142 1.42232C11.6486 1.58909 8.63051 2.74028 5.72126 5.55225C2.85833 8.32021 -0.451642 13.284 0.0509913 21.2034C0.488769 28.092 4.76695 36.7271 12.098 45.5174C18.6832 53.4136 26.9986 60.4853 34.3436 64.4345C34.3644 64.4461 34.3876 64.453 34.4084 64.4646C34.4339 64.4762 34.4571 64.4878 34.4826 64.4994C34.5173 64.5133 34.5544 64.5248 34.5891 64.5364C34.61 64.5434 34.6285 64.5503 34.6493 64.555C34.6933 64.5665 34.7397 64.5758 34.7837 64.5828C34.7976 64.5851 34.8092 64.5874 34.8231 64.5897C34.881 64.5966 34.9412 64.6013 34.9991 64.6013C35.057 64.6013 35.1172 64.5966 35.1751 64.5897C35.189 64.5874 35.2006 64.5851 35.2145 64.5828C35.2608 64.5758 35.3048 64.5665 35.3488 64.555C35.3674 64.5503 35.3882 64.5434 35.4068 64.5364C35.4438 64.5248 35.4809 64.5133 35.5156 64.4994C35.5411 64.4901 35.5643 64.4762 35.5897 64.4646C35.6106 64.4554 35.6338 64.4461 35.6546 64.4345C42.9972 60.4853 51.3127 53.4136 57.9002 45.5174C65.2312 36.7271 69.5117 28.092 69.9472 21.2034C70.4591 13.284 67.1514 8.32021 64.2862 5.55225ZM67.1839 21.0297C66.7831 27.3346 62.732 35.3999 55.7762 43.7385C49.6033 51.139 41.89 57.7729 35.0084 61.6272C28.1244 57.7752 20.4134 51.139 14.2405 43.7385C7.28475 35.3976 3.23125 27.3323 2.83285 21.0297C2.00594 8.00056 12.6215 4.19028 13.0708 4.0374C13.1056 4.02582 13.138 4.01424 13.1704 4.00034C22.0348 0.224796 30.0747 5.76071 33.7946 12.5034C33.7993 12.5127 33.8062 12.5219 33.8132 12.5335C33.827 12.559 33.8433 12.5845 33.8595 12.6077C33.8687 12.6239 33.8803 12.6378 33.8919 12.6517C33.9081 12.6725 33.9243 12.6957 33.9405 12.7142C33.9544 12.7304 33.9683 12.7466 33.9822 12.7605C33.9985 12.7791 34.0147 12.7953 34.0309 12.8115C34.0471 12.8277 34.0656 12.8439 34.0818 12.8601C34.0981 12.874 34.1119 12.8879 34.1282 12.9018C34.149 12.918 34.1699 12.9342 34.193 12.9505C34.2069 12.962 34.2231 12.9713 34.237 12.9829C34.2625 12.9991 34.288 13.0153 34.3135 13.0292C34.3227 13.0338 34.332 13.0408 34.3413 13.0477C34.3459 13.0501 34.3505 13.0524 34.3552 13.0547C34.3806 13.0686 34.4061 13.0802 34.4339 13.0918C34.4501 13.0987 34.4663 13.108 34.4849 13.1149C34.508 13.1242 34.5312 13.1311 34.5544 13.1404C34.5752 13.1473 34.5961 13.1566 34.6169 13.1612C34.6354 13.1682 34.6563 13.1705 34.6748 13.1775C34.7003 13.1844 34.7234 13.189 34.7489 13.196C34.7675 13.2006 34.7883 13.2029 34.8068 13.2053C34.8323 13.2099 34.8555 13.2122 34.881 13.2145C34.9041 13.2168 34.925 13.2168 34.9481 13.2191C34.969 13.2191 34.9921 13.2215 35.013 13.2215C35.0408 13.2215 35.0663 13.2191 35.0941 13.2191C35.1103 13.2191 35.1288 13.2168 35.145 13.2168C35.1751 13.2145 35.2052 13.2099 35.233 13.2053C35.2469 13.2029 35.2631 13.2006 35.277 13.1983C35.3048 13.1937 35.3326 13.1867 35.3604 13.1775C35.3766 13.1728 35.3929 13.1705 35.4091 13.1636C35.4322 13.1566 35.4554 13.1473 35.4786 13.1404C35.4994 13.1334 35.5202 13.1265 35.5411 13.1172C35.5596 13.1103 35.5758 13.101 35.5944 13.0941C35.6199 13.0825 35.6453 13.0709 35.6708 13.057C35.6754 13.0547 35.6801 13.0524 35.6847 13.0501C35.694 13.0454 35.7032 13.0385 35.7125 13.0338C35.738 13.0176 35.7658 13.0037 35.7913 12.9852C35.8052 12.9759 35.8191 12.9644 35.833 12.9551C35.8561 12.9389 35.877 12.9227 35.8978 12.9041C35.914 12.8902 35.9279 12.8787 35.9441 12.8648C35.9627 12.8485 35.9789 12.8323 35.9974 12.8138C36.0136 12.7976 36.0298 12.7791 36.046 12.7628C36.0599 12.7466 36.0738 12.7304 36.0877 12.7142C36.104 12.6934 36.1202 12.6725 36.1364 12.6517C36.148 12.6378 36.1572 12.6215 36.1688 12.6053C36.185 12.5822 36.1989 12.5567 36.2151 12.5312C36.2221 12.5219 36.2267 12.5127 36.2337 12.5011C39.9513 5.7584 47.9911 0.222479 56.8579 3.99802C56.888 4.01192 56.9227 4.0235 56.9528 4.03508C57.3952 4.19028 68.0108 8.00056 67.1839 21.0297Z" fill="white" fill-opacity="0.1"/>
</svg>
