<svg width="25" height="24" viewBox="0 0 25 24" fill="none" xmlns="http://www.w3.org/2000/svg">
<g clip-path="url(#clip0_9_1078)">
<path d="M20.92 10.18L13.21 2.30001C13.117 2.20628 13.0064 2.13189 12.8846 2.08112C12.7627 2.03035 12.632 2.00421 12.5 2.00421C12.368 2.00421 12.2373 2.03035 12.1154 2.08112C11.9936 2.13189 11.883 2.20628 11.79 2.30001L4.07999 10.19C3.89343 10.3781 3.74609 10.6013 3.64652 10.8468C3.54695 11.0923 3.49715 11.3551 3.49999 11.62V20C3.49922 20.5119 3.69477 21.0046 4.04637 21.3767C4.39797 21.7488 4.87885 21.9719 5.38999 22H19.61C20.1211 21.9719 20.602 21.7488 20.9536 21.3767C21.3052 21.0046 21.5008 20.5119 21.5 20V11.62C21.5008 11.0829 21.2928 10.5666 20.92 10.18ZM10.5 20V14H14.5V20H10.5ZM19.5 20H16.5V13C16.5 12.7348 16.3946 12.4804 16.2071 12.2929C16.0196 12.1054 15.7652 12 15.5 12H9.49999C9.23478 12 8.98042 12.1054 8.79289 12.2929C8.60535 12.4804 8.49999 12.7348 8.49999 13V20H5.49999V11.58L12.5 4.43001L19.5 11.62V20Z" fill="white"/>
</g>
<defs>
<clipPath id="clip0_9_1078">
<rect width="24" height="24" fill="white" transform="translate(0.5)"/>
</clipPath>
</defs>
</svg>
