<svg width="70" height="70" viewBox="0 0 70 70" fill="none" xmlns="http://www.w3.org/2000/svg">
<path d="M35 0C20.281 0 8.3062 11.9746 8.30634 26.6937C8.30634 34.4401 10.6166 42.4558 15.173 50.5183C19.1365 57.5315 24.0912 63.2663 27.5496 66.8422C29.5192 68.8785 32.1651 70 35 70C37.8349 70 40.4808 68.8785 42.4503 66.8421C45.9088 63.2661 50.8635 57.5314 54.8269 50.5181C59.3834 42.4557 61.6936 34.44 61.6936 26.6935C61.6936 11.9746 49.7189 0 35 0ZM39.4614 63.9509C38.2823 65.17 36.698 65.8414 35.0003 65.8414C33.3025 65.8414 31.7182 65.17 30.539 63.9509C23.7889 56.9718 12.465 42.8511 12.465 26.6937C12.465 14.2678 22.5742 4.15857 35.0001 4.15857C47.4258 4.15857 57.5352 14.2677 57.5355 26.6937C57.5353 42.8512 46.2113 56.9718 39.4614 63.9509Z" fill="white" fill-opacity="0.1"/>
<path d="M35 12.2625C27.0426 12.2625 20.5688 18.7364 20.5688 26.6938C20.5688 34.6511 27.0426 41.125 35 41.125C42.9574 41.125 49.4312 34.6511 49.4312 26.6937C49.4312 18.7364 42.9574 12.2625 35 12.2625ZM35 36.9662C29.3357 36.9662 24.7275 32.3579 24.7275 26.6937C24.7275 21.0294 29.3357 16.4212 35 16.4212C40.6643 16.4212 45.2725 21.0294 45.2725 26.6937C45.2725 32.3579 40.6643 36.9662 35 36.9662Z" fill="white" fill-opacity="0.1"/>
</svg>
