<svg width="116" height="69" viewBox="0 0 116 69" fill="none" xmlns="http://www.w3.org/2000/svg">
<path d="M12.5 32.5C19.3333 28.6667 39 20.5 59 20.5C79 20.5 98 27.6667 105 31.5" stroke="black"/>
<path d="M55 30H51C51.3333 29 52.3 27 53.5 27C54.7 27 55 29 55 30Z" stroke="#262626" stroke-width="0.5"/>
<path d="M60.5 32.5H58.5C58.5 31.8333 58.7 30.5 59.5 30.5C60.3 30.5 60.5 31.8333 60.5 32.5Z" stroke="#262626" stroke-width="0.5"/>
<path d="M60.5 36.5C60.1667 36.6667 59.1 36.9 57.5 36.5C57.5 35.6667 57.8 34 59 34C60.2 34 60.5 35.6667 60.5 36.5Z" stroke="#262626" stroke-width="0.5"/>
<path d="M71 33.5L68.5 34C68.1667 33.3333 67.8 32 69 32C70.2 32 70.8333 33 71 33.5Z" stroke="#262626" stroke-width="0.5"/>
<path d="M114.5 20.5C114.5 23.1276 113.021 25.6974 110.197 28.0986C107.375 30.4981 103.262 32.6816 98.1359 34.5252C87.8881 38.2108 73.698 40.5 58 40.5C42.302 40.5 28.1119 38.2108 17.8641 34.5252C12.7381 32.6816 8.62519 30.4981 5.80323 28.0986C2.97924 25.6974 1.5 23.1276 1.5 20.5C1.5 17.8724 2.97924 15.3026 5.80323 12.9014C8.62519 10.5019 12.7381 8.31837 17.8641 6.47481C28.1119 2.78921 42.302 0.5 58 0.5C73.698 0.5 87.8881 2.78921 98.1359 6.47481C103.262 8.31837 107.375 10.5019 110.197 12.9014C113.021 15.3026 114.5 17.8724 114.5 20.5Z" stroke="#262626"/>
<path d="M114.181 22.7792C114.379 21.7414 114.5 20.9234 114.5 20.5C114.631 21.0904 114.54 21.87 114.181 22.7792C113.442 26.6429 111.631 33.5541 111 34.5C110 36 108 38 107 40.5C106.2 42.5 102.667 53.3333 101 58.5C93.1667 61.6667 72.1 68 56.5 68C40.9 68 20.5 61 11.5 57.5L7.00001 37C6.50001 36.6667 5.30001 35.7 4.50001 34.5C3.63692 33.2054 2.40135 26.6962 1.75775 22.0449C1.56452 21.316 1.48467 20.6291 1.50001 20C1.56847 20.6161 1.65566 21.3071 1.75775 22.0449C3.66351 29.2337 16.5978 40.5 58 40.5C97.6178 40.5 111.798 28.8001 114.181 22.7792Z" fill="#262626"/>
<path d="M114.5 20.5C114.5 22.5 111.8 33.3 111 34.5C110 36 108 38 107 40.5C106.2 42.5 102.667 53.3333 101 58.5C93.1667 61.6667 72.1 68 56.5 68C40.9 68 20.5 61 11.5 57.5L7.00001 37C6.50001 36.6667 5.30001 35.7 4.50001 34.5C3.50001 33 2.00001 24.5 1.50001 20C1.33335 26.8333 12.4 40.5 58 40.5C103.6 40.5 115.5 25 114.5 20.5Z" stroke="#262626"/>
<path d="M111.5 35C108.944 37.1731 102.444 41.4377 101 40.9635" stroke="white" stroke-width="0.5"/>
<path d="M4 35C7 37.5 13.7 41.1 16.5 41.5" stroke="white" stroke-width="0.5"/>
<path d="M69.5 51C62.6666 51.3333 48.8 51.7 48 50.5C47.3333 49.5 45.5 47.8 43.5 49C41.5 50.2 43.3333 53.1667 44.5 54.5C44 55.1667 43 56.7 43 57.5C43 58.5 43.5 59.5 45 59.5C46.2 59.5 47.8333 57.5 48.5 56.5C50 58.5 69 56.5 69 56.5C69.5 58 71.5 59.5 73 59C74.5 58.5 75.5 57.5 75.5 55.5C75.5 53.5 72.5 53.5 73 53.5C73.5 53.5 76 51.5 76 50.5C76 49.5 75.5 48 73 48C71 48 69.8333 50 69.5 51Z" fill="white" stroke="#262626"/>
<circle cx="21.5" cy="27.5" r="13" fill="white" stroke="#262626"/>
<path d="M23.5 25.5C23.5 27.2593 23.2799 28.8325 22.9363 29.9492C22.7636 30.5106 22.5681 30.9285 22.3742 31.1951C22.1723 31.4726 22.0395 31.5 22 31.5C21.9605 31.5 21.8277 31.4726 21.6258 31.1951C21.4319 30.9285 21.2364 30.5106 21.0637 29.9492C20.7201 28.8325 20.5 27.2593 20.5 25.5C20.5 23.7407 20.7201 22.1675 21.0637 21.0508C21.2364 20.4894 21.4319 20.0715 21.6258 19.8049C21.8277 19.5274 21.9605 19.5 22 19.5C22.0395 19.5 22.1723 19.5274 22.3742 19.8049C22.5681 20.0715 22.7636 20.4894 22.9363 21.0508C23.2799 22.1675 23.5 23.7407 23.5 25.5Z" stroke="#C52222"/>
<circle cx="22" cy="35" r="1.5" stroke="#C52222"/>
</svg>
