<svg width="88" height="87" viewBox="0 0 88 87" fill="none" xmlns="http://www.w3.org/2000/svg">
<circle cx="44.4688" cy="43.5" r="43" fill="#D9D9D9" stroke="#262626" stroke-dasharray="2 2"/>
<path d="M45.3217 40.9412C46.6713 40.9412 47.9905 40.541 49.1126 39.7912C50.2348 39.0414 51.1094 37.9757 51.6258 36.7289C52.1423 35.4821 52.2774 34.1101 52.0141 32.7864C51.7508 31.4628 51.101 30.247 50.1467 29.2927C49.1924 28.3384 47.9765 27.6885 46.6529 27.4252C45.3293 27.1619 43.9573 27.2971 42.7104 27.8135C41.4636 28.33 40.3979 29.2046 39.6481 30.3267C38.8984 31.4488 38.4982 32.7681 38.4982 34.1176C38.4982 35.9274 39.2171 37.663 40.4967 38.9426C41.7764 40.2223 43.512 40.9412 45.3217 40.9412Z" fill="#262626" fill-opacity="0.6"/>
<path d="M55.557 58C56.0094 58 56.4433 57.8203 56.7632 57.5004C57.0832 57.1804 57.2629 56.7465 57.2629 56.2941C57.2629 53.1271 56.0048 50.0898 53.7654 47.8504C51.526 45.611 48.4887 44.3529 45.3217 44.3529C42.1547 44.3529 39.1174 45.611 36.878 47.8504C34.6386 50.0898 33.3805 53.1271 33.3805 56.2941C33.3805 56.7465 33.5603 57.1804 33.8802 57.5004C34.2001 57.8203 34.634 58 35.0864 58H55.557Z" fill="#262626" fill-opacity="0.6"/>
</svg>
