<svg width="72" height="70" viewBox="0 0 72 70" fill="none" xmlns="http://www.w3.org/2000/svg">
<g clip-path="url(#clip0_4_383)">
<path fill-rule="evenodd" clip-rule="evenodd" d="M24.0923 0.210775C29.7455 0.210775 34.3342 6.87012 34.3342 15.0789C34.3342 23.2878 29.7455 29.9471 24.0923 29.9471C18.4391 29.9471 13.8504 23.2935 13.8504 15.0789C13.8564 6.87012 18.4391 0.210775 24.0923 0.210775ZM37.1127 36.202C49.1046 36.2248 50.5961 43.75 60.7057 56.6301C65.7455 66.001 59.2022 71.9084 47.986 69.3791C42.8982 66.9238 39.3198 66.058 35.7294 66.1719C29.5109 66.377 27.9413 70.262 20.7064 69.9886C15.1254 69.8462 12.6115 67.6302 12.1244 64.2521C11.6011 60.6633 13.0625 58.396 14.8427 55.4281C21.7588 43.8753 28.9095 34.755 37.1127 36.202ZM4.31213 22.2624C0.0842656 23.846 -1.26288 30.1066 1.2991 36.2419C3.86108 42.3771 9.36392 46.0685 13.5918 44.4849C17.8196 42.9012 19.1668 36.6406 16.6048 30.5054C14.0428 24.3701 8.54 20.6787 4.31213 22.2624ZM67.688 22.2624C71.9159 23.846 73.263 30.1066 70.701 36.2419C68.1391 42.3771 62.6302 46.0685 58.4084 44.4849C54.1805 42.9012 52.8334 36.6406 55.3953 30.5054C57.9573 24.3701 63.4601 20.6787 67.688 22.2624ZM47.7214 0C53.3746 0 57.9633 6.65934 57.9633 14.8682C57.9633 23.077 53.3746 29.7363 47.7214 29.7363C42.0682 29.7363 37.4795 23.0827 37.4795 14.8682C37.4855 6.65934 42.0682 0 47.7214 0Z" fill="white" fill-opacity="0.1"/>
</g>
<defs>
<clipPath id="clip0_4_383">
<rect width="72" height="70" fill="white"/>
</clipPath>
</defs>
</svg>
