<svg width="25" height="24" viewBox="0 0 25 24" fill="none" xmlns="http://www.w3.org/2000/svg">
<g clip-path="url(#clip0_9_1072)">
<path d="M12.5 11C13.3284 11 14 10.3284 14 9.5C14 8.67157 13.3284 8 12.5 8C11.6716 8 11 8.67157 11 9.5C11 10.3284 11.6716 11 12.5 11Z" fill="white"/>
<path d="M12.5 2C10.3921 1.99989 8.36926 2.83176 6.87124 4.31479C5.37323 5.79782 4.52108 7.81216 4.5 9.92C4.5 15.4 11.55 21.5 11.85 21.76C12.0311 21.9149 12.2616 22.0001 12.5 22.0001C12.7384 22.0001 12.9689 21.9149 13.15 21.76C13.5 21.5 20.5 15.4 20.5 9.92C20.4789 7.81216 19.6268 5.79782 18.1288 4.31479C16.6307 2.83176 14.6079 1.99989 12.5 2ZM12.5 13C11.8078 13 11.1311 12.7947 10.5555 12.4101C9.97993 12.0256 9.53133 11.4789 9.26642 10.8394C9.00151 10.1999 8.9322 9.49612 9.06725 8.81718C9.2023 8.13825 9.53564 7.51461 10.0251 7.02513C10.5146 6.53564 11.1382 6.2023 11.8172 6.06725C12.4961 5.9322 13.1999 6.00151 13.8394 6.26642C14.4789 6.53133 15.0256 6.97993 15.4101 7.5555C15.7947 8.13108 16 8.80777 16 9.5C16 10.4283 15.6313 11.3185 14.9749 11.9749C14.3185 12.6313 13.4283 13 12.5 13Z" fill="white"/>
</g>
<defs>
<clipPath id="clip0_9_1072">
<rect width="24" height="24" fill="white" transform="translate(0.5)"/>
</clipPath>
</defs>
</svg>
