<svg width="25" height="24" viewBox="0 0 25 24" fill="none" xmlns="http://www.w3.org/2000/svg">
<g clip-path="url(#clip0_4_420)">
<path d="M12.5 2C10.3921 1.99989 8.36926 2.83176 6.87124 4.31479C5.37323 5.79782 4.52108 7.81216 4.5 9.92C4.5 15.4 11.55 21.5 11.85 21.76C12.0311 21.9149 12.2616 22.0001 12.5 22.0001C12.7384 22.0001 12.9689 21.9149 13.15 21.76C13.5 21.5 20.5 15.4 20.5 9.92C20.4789 7.81216 19.6268 5.79782 18.1288 4.31479C16.6307 2.83176 14.6079 1.99989 12.5 2ZM12.5 19.65C10.83 18.06 6.5 13.65 6.5 9.92C6.5 8.3287 7.13214 6.80258 8.25736 5.67736C9.38258 4.55214 10.9087 3.92 12.5 3.92C14.0913 3.92 15.6174 4.55214 16.7426 5.67736C17.8679 6.80258 18.5 8.3287 18.5 9.92C18.5 13.62 14.17 18.06 12.5 19.65Z" fill="white"/>
<path d="M12.5 6C11.8078 6 11.1311 6.20527 10.5555 6.58986C9.97993 6.97444 9.53133 7.52107 9.26642 8.16061C9.00152 8.80015 8.9322 9.50388 9.06725 10.1828C9.2023 10.8618 9.53564 11.4854 10.0251 11.9749C10.5146 12.4644 11.1383 12.7977 11.8172 12.9327C12.4961 13.0678 13.1999 12.9985 13.8394 12.7336C14.4789 12.4687 15.0256 12.0201 15.4101 11.4445C15.7947 10.8689 16 10.1922 16 9.5C16 8.57174 15.6313 7.6815 14.9749 7.02513C14.3185 6.36875 13.4283 6 12.5 6ZM12.5 11C12.2033 11 11.9133 10.912 11.6666 10.7472C11.42 10.5824 11.2277 10.3481 11.1142 10.074C11.0007 9.79994 10.9709 9.49834 11.0288 9.20736C11.0867 8.91639 11.2296 8.64912 11.4393 8.43934C11.6491 8.22956 11.9164 8.0867 12.2074 8.02882C12.4983 7.97094 12.7999 8.00065 13.074 8.11418C13.3481 8.22771 13.5824 8.41997 13.7472 8.66665C13.912 8.91332 14 9.20333 14 9.5C14 9.89782 13.842 10.2794 13.5607 10.5607C13.2794 10.842 12.8978 11 12.5 11Z" fill="white"/>
</g>
<defs>
<clipPath id="clip0_4_420">
<rect width="24" height="24" fill="white" transform="translate(0.5)"/>
</clipPath>
</defs>
</svg>
