<svg width="25" height="24" viewBox="0 0 25 24" fill="none" xmlns="http://www.w3.org/2000/svg">
<g clip-path="url(#clip0_9_1098)">
<path d="M12 14.6L14.81 12L12 9.40002V14.6Z" fill="white"/>
<path d="M12.5 2C10.5222 2 8.58879 2.58649 6.9443 3.6853C5.29981 4.78412 4.01809 6.3459 3.26121 8.17317C2.50433 10.0004 2.3063 12.0111 2.69215 13.9509C3.078 15.8907 4.03041 17.6725 5.42894 19.0711C6.82746 20.4696 8.60929 21.422 10.5491 21.8079C12.4889 22.1937 14.4996 21.9957 16.3268 21.2388C18.1541 20.4819 19.7159 19.2002 20.8147 17.5557C21.9135 15.9112 22.5 13.9778 22.5 12C22.5 10.6868 22.2413 9.38642 21.7388 8.17317C21.2363 6.95991 20.4997 5.85752 19.5711 4.92893C18.6425 4.00035 17.5401 3.26375 16.3268 2.7612C15.1136 2.25866 13.8132 2 12.5 2ZM16.5 13.18L12.86 16.55C12.542 16.8378 12.1289 16.9981 11.7 17C11.462 16.9994 11.2268 16.9483 11.01 16.85C10.7151 16.7307 10.4624 16.5262 10.2843 16.2625C10.1061 15.9989 10.0106 15.6882 10.01 15.37V8.63C10.0106 8.31184 10.1061 8.00109 10.2843 7.73747C10.4624 7.47384 10.7151 7.26931 11.01 7.15C11.3138 7.0132 11.6512 6.9687 11.9801 7.02204C12.309 7.07537 12.615 7.22419 12.86 7.45L16.5 10.82C16.6637 10.9699 16.7944 11.1522 16.8838 11.3554C16.9733 11.5585 17.0195 11.778 17.0195 12C17.0195 12.222 16.9733 12.4415 16.8838 12.6446C16.7944 12.8478 16.6637 13.0301 16.5 13.18Z" fill="white"/>
</g>
<defs>
<clipPath id="clip0_9_1098">
<rect width="24" height="24" fill="white" transform="translate(0.5)"/>
</clipPath>
</defs>
</svg>
