<svg width="25" height="24" viewBox="0 0 25 24" fill="none" xmlns="http://www.w3.org/2000/svg">
<g clip-path="url(#clip0_4_412)">
<path d="M12.5 2C10.5222 2 8.58879 2.58649 6.9443 3.6853C5.29981 4.78412 4.01809 6.3459 3.26121 8.17317C2.50433 10.0004 2.3063 12.0111 2.69215 13.9509C3.078 15.8907 4.03041 17.6725 5.42894 19.0711C6.82746 20.4696 8.60929 21.422 10.5491 21.8079C12.4889 22.1937 14.4996 21.9957 16.3268 21.2388C18.1541 20.4819 19.7159 19.2002 20.8147 17.5557C21.9135 15.9112 22.5 13.9778 22.5 12C22.5 10.6868 22.2413 9.38642 21.7388 8.17317C21.2363 6.95991 20.4997 5.85752 19.5711 4.92893C18.6425 4.00035 17.5401 3.26375 16.3268 2.7612C15.1136 2.25866 13.8132 2 12.5 2ZM12.5 20C10.9178 20 9.37104 19.5308 8.05544 18.6518C6.73985 17.7727 5.71447 16.5233 5.10897 15.0615C4.50347 13.5997 4.34504 11.9911 4.65372 10.4393C4.9624 8.88743 5.72433 7.46197 6.84315 6.34315C7.96197 5.22433 9.38743 4.4624 10.9393 4.15372C12.4911 3.84504 14.0997 4.00346 15.5615 4.60896C17.0233 5.21447 18.2727 6.23984 19.1518 7.55544C20.0308 8.87103 20.5 10.4177 20.5 12C20.5 14.1217 19.6572 16.1566 18.1569 17.6569C16.6566 19.1571 14.6217 20 12.5 20Z" fill="white"/>
<path d="M12.84 7.45001C12.595 7.2242 12.289 7.07538 11.9601 7.02204C11.6312 6.96871 11.2938 7.0132 10.99 7.15001C10.695 7.26932 10.4424 7.47385 10.2642 7.73748C10.0861 8.0011 9.99063 8.31185 9.98999 8.63001V15.37C9.99063 15.6882 10.0861 15.9989 10.2642 16.2625C10.4424 16.5262 10.695 16.7307 10.99 16.85C11.2068 16.9483 11.442 16.9995 11.68 17C12.1089 16.9981 12.522 16.8379 12.84 16.55L16.5 13.18C16.6637 13.0301 16.7944 12.8478 16.8838 12.6446C16.9733 12.4415 17.0194 12.222 17.0194 12C17.0194 11.778 16.9733 11.5585 16.8838 11.3554C16.7944 11.1522 16.6637 10.9699 16.5 10.82L12.84 7.45001ZM12 14.6V9.40001L14.81 12L12 14.6Z" fill="white"/>
</g>
<defs>
<clipPath id="clip0_4_412">
<rect width="24" height="24" fill="white" transform="translate(0.5)"/>
</clipPath>
</defs>
</svg>
