<svg width="25" height="24" viewBox="0 0 25 24" fill="none" xmlns="http://www.w3.org/2000/svg">
<g clip-path="url(#clip0_9_1104)">
<path d="M12.5 13.5C13.3284 13.5 14 12.8284 14 12C14 11.1716 13.3284 10.5 12.5 10.5C11.6716 10.5 11 11.1716 11 12C11 12.8284 11.6716 13.5 12.5 13.5Z" fill="white"/>
<path d="M22.39 10.32L21.6 7.8C21.5147 7.50876 21.3717 7.23767 21.1793 7.00292C20.987 6.76817 20.7493 6.57456 20.4806 6.43364C20.2118 6.29272 19.9174 6.20737 19.6149 6.1827C19.3124 6.15802 19.0081 6.19451 18.72 6.29L18.38 6.4C18.1137 6.48805 17.83 6.51039 17.5531 6.46511C17.2763 6.41984 17.0145 6.3083 16.79 6.14L16.68 6.06C16.461 5.89237 16.2845 5.67562 16.1646 5.42723C16.0448 5.17884 15.985 4.90575 15.99 4.63V4.35C15.9949 3.72202 15.7503 3.11779 15.31 2.67C15.1006 2.45845 14.8515 2.29036 14.5769 2.17538C14.3023 2.0604 14.0077 2.0008 13.71 2H11.16C10.5482 2.00791 9.96428 2.25719 9.53538 2.69358C9.10648 3.12997 8.86735 3.71813 8.87003 4.33V4.57C8.86907 4.86027 8.80299 5.14663 8.67665 5.40796C8.55031 5.6693 8.36693 5.89895 8.14003 6.08L8.01004 6.18C7.75938 6.36962 7.4662 6.49516 7.15599 6.5457C6.84578 6.59624 6.52792 6.57025 6.23003 6.47C5.95645 6.37533 5.6665 6.33715 5.37773 6.35777C5.08897 6.3784 4.80739 6.4574 4.55003 6.59C4.28209 6.72299 4.04438 6.90969 3.8517 7.1385C3.65901 7.36731 3.51548 7.63333 3.43003 7.92L2.61003 10.52C2.41988 11.1062 2.46864 11.7437 2.74574 12.2942C3.02284 12.8447 3.50591 13.2636 4.09003 13.46H4.25003C4.51949 13.561 4.76134 13.7241 4.95594 13.9361C5.15054 14.148 5.29241 14.4029 5.37003 14.68L5.43003 14.84C5.54151 15.1461 5.57879 15.4743 5.53881 15.7977C5.49883 16.121 5.38272 16.4302 5.20003 16.7C4.83025 17.2036 4.67428 17.8328 4.76604 18.4508C4.8578 19.0688 5.18988 19.6256 5.69003 20L7.76004 21.57C8.15199 21.855 8.62547 22.0058 9.11003 22C9.23972 22.0127 9.37035 22.0127 9.50003 22C9.80014 21.9419 10.0853 21.8233 10.338 21.6514C10.5907 21.4794 10.8058 21.2578 10.97 21L11.2 20.67C11.3614 20.4386 11.5749 20.2483 11.8233 20.1145C12.0717 19.9808 12.348 19.9073 12.63 19.9C12.9256 19.8927 13.2182 19.9604 13.4805 20.0968C13.7428 20.2332 13.9663 20.4339 14.13 20.68L14.25 20.85C14.4205 21.1037 14.6412 21.3199 14.8984 21.4852C15.1555 21.6504 15.4438 21.7613 15.7455 21.8109C16.0471 21.8606 16.3558 21.848 16.6523 21.7739C16.9489 21.6997 17.2272 21.5657 17.47 21.38L19.5 19.86C19.98 19.4872 20.2992 18.945 20.3922 18.3444C20.4851 17.7438 20.3448 17.1304 20 16.63L19.74 16.25C19.5837 16.0084 19.4813 15.736 19.4399 15.4512C19.3985 15.1664 19.419 14.8761 19.5 14.6C19.5826 14.3044 19.736 14.0334 19.9468 13.8104C20.1576 13.5874 20.4196 13.4191 20.71 13.32L20.91 13.25C21.4887 13.0492 21.9667 12.6312 22.2429 12.0845C22.5191 11.5377 22.5718 10.905 22.39 10.32ZM12.5 15.5C11.8078 15.5 11.1311 15.2947 10.5555 14.9101C9.97997 14.5256 9.53136 13.9789 9.26646 13.3394C9.00155 12.6999 8.93224 11.9961 9.06729 11.3172C9.20233 10.6383 9.53568 10.0146 10.0252 9.52513C10.5146 9.03564 11.1383 8.7023 11.8172 8.56725C12.4962 8.4322 13.1999 8.50151 13.8394 8.76642C14.479 9.03133 15.0256 9.47993 15.4102 10.0555C15.7948 10.6311 16 11.3078 16 12C16 12.9283 15.6313 13.8185 14.9749 14.4749C14.3185 15.1313 13.4283 15.5 12.5 15.5Z" fill="white"/>
</g>
<defs>
<clipPath id="clip0_9_1104">
<rect width="24" height="24" fill="white" transform="translate(0.5)"/>
</clipPath>
</defs>
</svg>
