<svg width="25" height="24" viewBox="0 0 25 24" fill="none" xmlns="http://www.w3.org/2000/svg">
<g clip-path="url(#clip0_4_404)">
<path d="M9.10997 22C8.622 21.9971 8.14818 21.8357 7.75997 21.54L5.68997 20C5.21228 19.6276 4.89533 19.0863 4.8042 18.4875C4.71308 17.8887 4.85469 17.2777 5.19997 16.78C5.38266 16.5102 5.49876 16.201 5.53875 15.8777C5.57873 15.5543 5.54145 15.2261 5.42997 14.92L5.36997 14.76C5.29235 14.4829 5.15048 14.228 4.95588 14.0161C4.76128 13.8041 4.51943 13.641 4.24997 13.54H4.08997C3.50585 13.3436 3.02278 12.9247 2.74568 12.3742C2.46858 11.8237 2.41982 11.1862 2.60997 10.6L3.42997 8C3.50546 7.69876 3.64443 7.41713 3.83759 7.17396C4.03075 6.93078 4.27363 6.73169 4.54997 6.59C4.80732 6.4574 5.0889 6.3784 5.37767 6.35777C5.66644 6.33715 5.95639 6.37533 6.22997 6.47C6.52786 6.57025 6.84572 6.59624 7.15593 6.5457C7.46614 6.49516 7.75932 6.36962 8.00997 6.18L8.13997 6.08C8.36687 5.89895 8.55024 5.6693 8.67659 5.40796C8.80293 5.14663 8.86901 4.86027 8.86997 4.57V4.33C8.86729 3.71813 9.10642 3.12997 9.53532 2.69358C9.96422 2.25719 10.5482 2.00791 11.16 2H13.71C14.0077 2.0008 14.3022 2.0604 14.5768 2.17538C14.8514 2.29036 15.1005 2.45845 15.31 2.67C15.7503 3.11779 15.9948 3.72202 15.99 4.35V4.63C15.9849 4.90575 16.0447 5.17884 16.1646 5.42723C16.2844 5.67562 16.461 5.89237 16.68 6.06L16.79 6.14C17.0144 6.3083 17.2762 6.41984 17.5531 6.46511C17.8299 6.51039 18.1136 6.48805 18.38 6.4L18.72 6.29C19.008 6.19451 19.3124 6.15802 19.6149 6.1827C19.9173 6.20737 20.2117 6.29272 20.4805 6.43364C20.7493 6.57456 20.9869 6.76817 21.1793 7.00292C21.3716 7.23767 21.5147 7.50876 21.6 7.8L22.39 10.32C22.5728 10.9024 22.5228 11.533 22.2506 12.0793C21.9783 12.6256 21.505 13.0452 20.93 13.25L20.73 13.32C20.4358 13.4163 20.1698 13.5834 19.9553 13.8066C19.7409 14.0298 19.5845 14.3022 19.5 14.6C19.4204 14.8768 19.4015 15.1675 19.4447 15.4523C19.4878 15.7371 19.5919 16.0092 19.75 16.25L20.01 16.63C20.3548 17.1304 20.4951 17.7438 20.4021 18.3444C20.3091 18.945 19.9899 19.4872 19.51 19.86L17.5 21.41C17.2571 21.5957 16.9789 21.7297 16.6823 21.8039C16.3857 21.878 16.0771 21.8906 15.7754 21.8409C15.4738 21.7913 15.1855 21.6804 14.9283 21.5152C14.6711 21.3499 14.4505 21.1337 14.28 20.88L14.16 20.71C13.9962 20.4639 13.7727 20.2632 13.5104 20.1268C13.2481 19.9904 12.9555 19.9227 12.66 19.93C12.3779 19.9373 12.1016 20.0108 11.8532 20.1445C11.6048 20.2783 11.3913 20.4686 11.23 20.7L11 21.03C10.8294 21.2855 10.6083 21.5034 10.3504 21.6702C10.0924 21.8371 9.80298 21.9493 9.49997 22C9.37028 22.0127 9.23966 22.0127 9.10997 22ZM4.89997 11.62C5.46466 11.8214 5.9742 12.1525 6.38757 12.5867C6.80095 13.0209 7.10661 13.5461 7.27997 14.12V14.24C7.49591 14.8366 7.56681 15.4761 7.48683 16.1055C7.40684 16.735 7.17827 17.3363 6.81997 17.86C6.75673 17.9299 6.72171 18.0208 6.72171 18.115C6.72171 18.2092 6.75673 18.3001 6.81997 18.37L8.96997 20C8.99802 20.022 9.03046 20.0378 9.06512 20.0463C9.09977 20.0547 9.13583 20.0557 9.17087 20.049C9.20592 20.0424 9.23914 20.0284 9.26831 20.0078C9.29748 19.9873 9.32191 19.9608 9.33997 19.93L9.56997 19.6C9.91686 19.0988 10.3801 18.6891 10.92 18.4062C11.4599 18.1232 12.0604 17.9754 12.67 17.9754C13.2795 17.9754 13.88 18.1232 14.4199 18.4062C14.9598 18.6891 15.4231 19.0988 15.77 19.6L15.89 19.78C15.933 19.841 15.9971 19.8838 16.07 19.9C16.1034 19.9049 16.1374 19.903 16.1701 19.8944C16.2027 19.8859 16.2333 19.8707 16.26 19.85L18.32 18.29C18.3921 18.2328 18.4395 18.1501 18.4525 18.0589C18.4656 17.9678 18.4432 17.8751 18.39 17.8L18.13 17.42C17.7912 16.926 17.5677 16.3622 17.476 15.7703C17.3842 15.1783 17.4266 14.5734 17.6 14C17.7757 13.3974 18.0936 12.8458 18.5269 12.3916C18.9602 11.9374 19.4963 11.5939 20.09 11.39L20.29 11.32C20.3733 11.2866 20.4401 11.2216 20.4757 11.1392C20.5113 11.0567 20.5128 10.9636 20.48 10.88L19.7 8.39C19.6812 8.34643 19.6539 8.30713 19.6195 8.27446C19.5851 8.2418 19.5444 8.21647 19.5 8.2C19.4705 8.18507 19.438 8.17728 19.405 8.17728C19.372 8.17728 19.3394 8.18507 19.31 8.2L18.97 8.31C18.3948 8.49982 17.7822 8.54712 17.1847 8.44783C16.5872 8.34855 16.0228 8.10564 15.54 7.74L15.5 7.65C15.0367 7.29912 14.661 6.84561 14.4024 6.32509C14.1439 5.80456 14.0096 5.23119 14.01 4.65V4.34C14.0118 4.24362 13.9759 4.15033 13.91 4.08C13.8524 4.02801 13.7775 3.99946 13.7 4H11.16C11.1192 4.00254 11.0794 4.01311 11.0428 4.03109C11.0061 4.04906 10.9734 4.0741 10.9464 4.10476C10.9195 4.13542 10.8989 4.1711 10.8857 4.20976C10.8726 4.24841 10.8673 4.28927 10.87 4.33V4.58C10.87 5.17704 10.733 5.76612 10.4695 6.30185C10.206 6.83758 9.82295 7.30565 9.34997 7.67L9.21997 7.77C8.7097 8.15851 8.1117 8.41553 7.47867 8.51842C6.84564 8.62131 6.19702 8.5669 5.58997 8.36C5.54455 8.34476 5.4954 8.34476 5.44997 8.36C5.39354 8.39429 5.35103 8.44741 5.32997 8.51L4.49997 11.12C4.47104 11.2089 4.47782 11.3056 4.51888 11.3895C4.55994 11.4735 4.63205 11.5382 4.71997 11.57L4.89997 11.62Z" fill="white"/>
<path d="M12.5 15.5C11.8078 15.5 11.1311 15.2947 10.5555 14.9101C9.97993 14.5256 9.53133 13.9789 9.26642 13.3394C9.00152 12.6999 8.9322 11.9961 9.06725 11.3172C9.2023 10.6383 9.53564 10.0146 10.0251 9.52513C10.5146 9.03564 11.1383 8.7023 11.8172 8.56725C12.4961 8.4322 13.1999 8.50152 13.8394 8.76642C14.4789 9.03133 15.0256 9.47993 15.4101 10.0555C15.7947 10.6311 16 11.3078 16 12C16 12.9283 15.6313 13.8185 14.9749 14.4749C14.3185 15.1313 13.4283 15.5 12.5 15.5ZM12.5 10.5C12.2033 10.5 11.9133 10.588 11.6666 10.7528C11.42 10.9176 11.2277 11.1519 11.1142 11.426C11.0007 11.7001 10.9709 12.0017 11.0288 12.2926C11.0867 12.5836 11.2296 12.8509 11.4393 13.0607C11.6491 13.2704 11.9164 13.4133 12.2074 13.4712C12.4983 13.5291 12.7999 13.4994 13.074 13.3858C13.3481 13.2723 13.5824 13.08 13.7472 12.8334C13.912 12.5867 14 12.2967 14 12C14 11.6022 13.842 11.2206 13.5607 10.9393C13.2794 10.658 12.8978 10.5 12.5 10.5Z" fill="white"/>
</g>
<defs>
<clipPath id="clip0_4_404">
<rect width="24" height="24" fill="white" transform="translate(0.5)"/>
</clipPath>
</defs>
</svg>
