<svg width="22" height="20" viewBox="0 0 22 20" fill="none" xmlns="http://www.w3.org/2000/svg">
<g clip-path="url(#clip0_11_419)">
<path fill-rule="evenodd" clip-rule="evenodd" d="M7.5271 0.0602214C9.17595 0.0602214 10.5143 1.96289 10.5143 4.30827C10.5143 6.65365 9.17595 8.55632 7.5271 8.55632C5.87825 8.55632 4.53988 6.65527 4.53988 4.30827C4.54164 1.96289 5.87825 0.0602214 7.5271 0.0602214ZM11.3247 10.3434C14.8224 10.3499 15.2574 12.5 18.206 16.18C19.6759 18.8574 17.7675 20.5452 14.4961 19.8226C13.0122 19.1211 11.9685 18.8737 10.9213 18.9063C9.10754 18.9648 8.64972 20.0749 6.53955 19.9967C4.91175 19.9561 4.17854 19.3229 4.03646 18.3577C3.88385 17.3324 4.3101 16.6846 4.82931 15.8366C6.84651 12.5358 8.93213 9.93001 11.3247 10.3434ZM1.75789 6.36068C0.524763 6.81315 0.131846 8.60189 0.87909 10.3548C1.62633 12.1077 3.23133 13.1624 4.46446 12.71C5.69758 12.2575 6.0905 10.4688 5.34326 8.71582C4.59601 6.96289 2.99102 5.9082 1.75789 6.36068ZM20.2425 6.36068C21.4756 6.81315 21.8686 8.60189 21.1213 10.3548C20.3741 12.1077 18.7673 13.1624 17.536 12.71C16.3028 12.2575 15.9099 10.4688 16.6572 8.71582C17.4044 6.96289 19.0094 5.9082 20.2425 6.36068ZM14.4189 0C16.0678 0 17.4062 1.90267 17.4062 4.24805C17.4062 6.59343 16.0678 8.49609 14.4189 8.49609C12.7701 8.49609 11.4317 6.59505 11.4317 4.24805C11.4335 1.90267 12.7701 0 14.4189 0Z" fill="#262626"/>
</g>
<defs>
<clipPath id="clip0_11_419">
<rect width="21" height="20" fill="white" transform="translate(0.5)"/>
</clipPath>
</defs>
</svg>
